<?xml version="1.0" encoding="utf-8"?>
<!-- Generator: Adobe Illustrator 15.1.0, SVG Export Plug-In . SVG Version: 6.00 Build 0)  -->
<!DOCTYPE svg PUBLIC "-//W3C//DTD SVG 1.1//EN" "http://www.w3.org/Graphics/SVG/1.1/DTD/svg11.dtd">
<svg version="1.1" id="Layer_1" xmlns="http://www.w3.org/2000/svg" xmlns:xlink="http://www.w3.org/1999/xlink" x="0px" y="0px"
	 width="1680px" height="60px" viewBox="0 0 1680 60" enable-background="new 0 0 1680 60" xml:space="preserve">
<rect x="-0.5" y="30.5" fill="#4D4D4D" stroke="#4D4D4D" stroke-miterlimit="10" width="3" height="30"/>
<rect x="72.5" y="30.5" fill="#4D4D4D" stroke="#4D4D4D" stroke-miterlimit="10" width="3" height="30"/>
<rect x="145.5" y="30.5" fill="#4D4D4D" stroke="#4D4D4D" stroke-miterlimit="10" width="3" height="30"/>
<rect x="218.5" y="30.5" fill="#4D4D4D" stroke="#4D4D4D" stroke-miterlimit="10" width="3" height="30"/>
<rect x="291.5" y="30.5" fill="#4D4D4D" stroke="#4D4D4D" stroke-miterlimit="10" width="3" height="30"/>
<rect x="364.5" y="30.5" fill="#4D4D4D" stroke="#4D4D4D" stroke-miterlimit="10" width="3" height="30"/>
<rect x="436.5" y="30.5" fill="#4D4D4D" stroke="#4D4D4D" stroke-miterlimit="10" width="3" height="30"/>
<rect x="509.5" y="30.5" fill="#4D4D4D" stroke="#4D4D4D" stroke-miterlimit="10" width="3" height="30"/>
<rect x="582.5" y="30.5" fill="#4D4D4D" stroke="#4D4D4D" stroke-miterlimit="10" width="3" height="30"/>
<rect x="655.5" y="30.5" fill="#4D4D4D" stroke="#4D4D4D" stroke-miterlimit="10" width="3" height="30"/>
<rect x="728.5" y="30.5" fill="#4D4D4D" stroke="#4D4D4D" stroke-miterlimit="10" width="3" height="30"/>
<rect x="801.5" y="30.5" fill="#4D4D4D" stroke="#4D4D4D" stroke-miterlimit="10" width="3" height="30"/>
<rect x="874.5" y="30.5" fill="#4D4D4D" stroke="#4D4D4D" stroke-miterlimit="10" width="3" height="30"/>
<rect x="947.5" y="30.5" fill="#4D4D4D" stroke="#4D4D4D" stroke-miterlimit="10" width="3" height="30"/>
<rect x="1020.5" y="30.5" fill="#4D4D4D" stroke="#4D4D4D" stroke-miterlimit="10" width="3" height="30"/>
<rect x="1093.5" y="30.5" fill="#4D4D4D" stroke="#4D4D4D" stroke-miterlimit="10" width="3" height="30"/>
<rect x="1166.5" y="30.5" fill="#4D4D4D" stroke="#4D4D4D" stroke-miterlimit="10" width="3" height="30"/>
<rect x="1239.5" y="30.5" fill="#4D4D4D" stroke="#4D4D4D" stroke-miterlimit="10" width="3" height="30"/>
<rect x="1311.5" y="30.5" fill="#4D4D4D" stroke="#4D4D4D" stroke-miterlimit="10" width="3" height="30"/>
<rect x="1384.5" y="30.5" fill="#4D4D4D" stroke="#4D4D4D" stroke-miterlimit="10" width="3" height="30"/>
<rect x="1457.5" y="30.5" fill="#4D4D4D" stroke="#4D4D4D" stroke-miterlimit="10" width="3" height="30"/>
<rect x="1530.5" y="30.5" fill="#4D4D4D" stroke="#4D4D4D" stroke-miterlimit="10" width="3" height="30"/>
<rect x="1603.5" y="30.5" fill="#4D4D4D" stroke="#4D4D4D" stroke-miterlimit="10" width="3" height="30"/>
<rect x="1676.5" y="30.5" fill="#4D4D4D" stroke="#4D4D4D" stroke-miterlimit="10" width="3" height="30"/>
<rect x="-5.5" y="53.5" fill="#4D4D4D" stroke="#4D4D4D" stroke-miterlimit="10" width="1690" height="7"/>
</svg>
