<?xml version="1.0" encoding="utf-8"?>
<!-- Generator: Adobe Illustrator 15.0.2, SVG Export Plug-In . SVG Version: 6.00 Build 0)  -->
<!DOCTYPE svg PUBLIC "-//W3C//DTD SVG 1.1//EN" "http://www.w3.org/Graphics/SVG/1.1/DTD/svg11.dtd">
<svg version="1.1" id="Layer_1" xmlns="http://www.w3.org/2000/svg" xmlns:xlink="http://www.w3.org/1999/xlink" x="0px" y="0px"
	 width="1752.5px" height="38.333px" viewBox="0 0 1752.5 38.333" enable-background="new 0 0 1752.5 38.333" xml:space="preserve">
<rect x="-0.5" y="8.833" fill="#4D4D4D" stroke="#4D4D4D" stroke-miterlimit="10" width="3" height="30"/>
<rect x="72.5" y="8.833" fill="#4D4D4D" stroke="#4D4D4D" stroke-miterlimit="10" width="3" height="30"/>
<rect x="145.5" y="8.833" fill="#4D4D4D" stroke="#4D4D4D" stroke-miterlimit="10" width="3" height="30"/>
<rect x="218.5" y="8.833" fill="#4D4D4D" stroke="#4D4D4D" stroke-miterlimit="10" width="3" height="30"/>
<rect x="291.5" y="8.833" fill="#4D4D4D" stroke="#4D4D4D" stroke-miterlimit="10" width="3" height="30"/>
<rect x="364.5" y="8.833" fill="#4D4D4D" stroke="#4D4D4D" stroke-miterlimit="10" width="3" height="30"/>
<rect x="436.5" y="8.833" fill="#4D4D4D" stroke="#4D4D4D" stroke-miterlimit="10" width="3" height="30"/>
<rect x="509.5" y="8.833" fill="#4D4D4D" stroke="#4D4D4D" stroke-miterlimit="10" width="3" height="30"/>
<rect x="582.5" y="8.833" fill="#4D4D4D" stroke="#4D4D4D" stroke-miterlimit="10" width="3" height="30"/>
<rect x="655.5" y="8.833" fill="#4D4D4D" stroke="#4D4D4D" stroke-miterlimit="10" width="3" height="30"/>
<rect x="728.5" y="8.833" fill="#4D4D4D" stroke="#4D4D4D" stroke-miterlimit="10" width="3" height="30"/>
<rect x="801.5" y="8.833" fill="#4D4D4D" stroke="#4D4D4D" stroke-miterlimit="10" width="3" height="30"/>
<rect x="874.5" y="8.833" fill="#4D4D4D" stroke="#4D4D4D" stroke-miterlimit="10" width="3" height="30"/>
<rect x="947.5" y="8.833" fill="#4D4D4D" stroke="#4D4D4D" stroke-miterlimit="10" width="3" height="30"/>
<rect x="1020.5" y="8.833" fill="#4D4D4D" stroke="#4D4D4D" stroke-miterlimit="10" width="3" height="30"/>
<rect x="1093.5" y="8.833" fill="#4D4D4D" stroke="#4D4D4D" stroke-miterlimit="10" width="3" height="30"/>
<rect x="1166.5" y="8.833" fill="#4D4D4D" stroke="#4D4D4D" stroke-miterlimit="10" width="3" height="30"/>
<rect x="1239.5" y="8.833" fill="#4D4D4D" stroke="#4D4D4D" stroke-miterlimit="10" width="3" height="30"/>
<rect x="1311.5" y="8.833" fill="#4D4D4D" stroke="#4D4D4D" stroke-miterlimit="10" width="3" height="30"/>
<rect x="1384.5" y="8.833" fill="#4D4D4D" stroke="#4D4D4D" stroke-miterlimit="10" width="3" height="30"/>
<rect x="1457.5" y="8.833" fill="#4D4D4D" stroke="#4D4D4D" stroke-miterlimit="10" width="3" height="30"/>
<rect x="1530.5" y="8.833" fill="#4D4D4D" stroke="#4D4D4D" stroke-miterlimit="10" width="3" height="30"/>
<rect x="1603.5" y="8.833" fill="#4D4D4D" stroke="#4D4D4D" stroke-miterlimit="10" width="3" height="30"/>
<rect x="1676.5" y="8.833" fill="#4D4D4D" stroke="#4D4D4D" stroke-miterlimit="10" width="3" height="30"/>
<rect x="1749.5" y="8.833" fill="#4D4D4D" stroke="#4D4D4D" stroke-miterlimit="10" width="3" height="30"/>
<text transform="matrix(1 0 0 1 6.4463 24.9482)" fill="#ED1C24" font-family="'MyriadPro-Regular'" font-size="12">00:00</text>
<text transform="matrix(1 0 0 1 81.5 24.9482)" fill="#ED1C24" font-family="'MyriadPro-Regular'" font-size="12">01:00</text>
<text transform="matrix(1 0 0 1 154 24.9482)" fill="#ED1C24" font-family="'MyriadPro-Regular'" font-size="12">02:00</text>
<text transform="matrix(1 0 0 1 227.5 24.9482)" fill="#ED1C24" font-family="'MyriadPro-Regular'" font-size="12">03:00</text>
<text transform="matrix(1 0 0 1 301 24.9482)" fill="#ED1C24" font-family="'MyriadPro-Regular'" font-size="12">04:00</text>
<text transform="matrix(1 0 0 1 373 24.9482)" fill="#ED1C24" font-family="'MyriadPro-Regular'" font-size="12">05:00</text>
<text transform="matrix(1 0 0 1 445.5 24.9482)" fill="#ED1C24" font-family="'MyriadPro-Regular'" font-size="12">06:00</text>
<text transform="matrix(1 0 0 1 516 24.9482)" fill="#ED1C24" font-family="'MyriadPro-Regular'" font-size="12">07:00</text>
<text transform="matrix(1 0 0 1 590.5 24.9482)" fill="#ED1C24" font-family="'MyriadPro-Regular'" font-size="12">08:00</text>
<text transform="matrix(1 0 0 1 662.5 24.9482)" fill="#ED1C24" font-family="'MyriadPro-Regular'" font-size="12">09:00</text>
<text transform="matrix(1 0 0 1 735 24.9482)" fill="#ED1C24" font-family="'MyriadPro-Regular'" font-size="12">10:00</text>
<text transform="matrix(1 0 0 1 808 24.9482)" fill="#ED1C24" font-family="'MyriadPro-Regular'" font-size="12">11:00</text>
<text transform="matrix(1 0 0 1 880 24.9482)" fill="#ED1C24" font-family="'MyriadPro-Regular'" font-size="12">12:00</text>
<text transform="matrix(1 0 0 1 953 24.9482)" fill="#ED1C24" font-family="'MyriadPro-Regular'" font-size="12">13:00</text>
<text transform="matrix(1 0 0 1 1026 24.9482)" fill="#ED1C24" font-family="'MyriadPro-Regular'" font-size="12">14:00</text>
<text transform="matrix(1 0 0 1 1098.5 24.9482)" fill="#ED1C24" font-family="'MyriadPro-Regular'" font-size="12">15:00</text>
<text transform="matrix(1 0 0 1 1175 24.9482)" fill="#ED1C24" font-family="'MyriadPro-Regular'" font-size="12">16:00</text>
<text transform="matrix(1 0 0 1 1245 24.9482)" fill="#ED1C24" font-family="'MyriadPro-Regular'" font-size="12">17:00</text>
<text transform="matrix(1 0 0 1 1316.5 24.9482)" fill="#ED1C24" font-family="'MyriadPro-Regular'" font-size="12">18:00</text>
<text transform="matrix(1 0 0 1 1391 24.9482)" fill="#ED1C24" font-family="'MyriadPro-Regular'" font-size="12">19:00</text>
<text transform="matrix(1 0 0 1 1464.5 24.9482)" fill="#ED1C24" font-family="'MyriadPro-Regular'" font-size="12">20:00</text>
<text transform="matrix(1 0 0 1 1537 24.9482)" fill="#ED1C24" font-family="'MyriadPro-Regular'" font-size="12">21:00</text>
<text transform="matrix(1 0 0 1 1609 24.9482)" fill="#ED1C24" font-family="'MyriadPro-Regular'" font-size="12">22:00</text>
<text transform="matrix(1 0 0 1 1682.5 24.9482)" fill="#ED1C24" font-family="'MyriadPro-Regular'" font-size="12">23:00</text>
<polygon fill="#4D4D4D" stroke="#4D4D4D" stroke-miterlimit="10" points="1752.535,35.064 1752.502,39.564 -0.032,39.226 0,34.726 
	"/>
</svg>
